<svg viewBox="169.482 182.122 160 160" xmlns="http://www.w3.org/2000/svg"><path d="M189.482 182.122h140v140a20 20 0 0 1-20 20h-140v-140a20 20 0 0 1 20-20z" shape="rect 169.482 182.122 160 160 20 0 20 0 1@0a96e5f3"/><path class="logo-text" d="M249.323 259.291h-11.65l-.13-23.74-11.52 19.32h-5.63l-11.46-18.68v23.1h-11.71v-44.8h10.43l15.75 25.86 15.36-25.86h10.43l.13 44.8zm31.546.9c-4.733 0-8.99-1.003-12.77-3.01-3.773-2.007-6.737-4.78-8.89-8.32-2.153-3.54-3.23-7.53-3.23-11.97s1.077-8.43 3.23-11.97c2.153-3.54 5.117-6.313 8.89-8.32 3.78-2.007 8.037-3.01 12.77-3.01 4.74 0 8.997 1.003 12.77 3.01 3.773 2.007 6.74 4.78 8.9 8.32 2.153 3.54 3.23 7.53 3.23 11.97s-1.077 8.43-3.23 11.97c-2.16 3.54-5.127 6.313-8.9 8.32-3.773 2.007-8.03 3.01-12.77 3.01zm0-10.5c2.26 0 4.31-.533 6.15-1.6 1.833-1.067 3.283-2.57 4.35-4.51 1.067-1.94 1.6-4.17 1.6-6.69 0-2.52-.533-4.75-1.6-6.69-1.067-1.94-2.517-3.443-4.35-4.51-1.84-1.067-3.89-1.6-6.15-1.6-2.26 0-4.307.533-6.14 1.6-1.833 1.067-3.283 2.57-4.35 4.51-1.067 1.94-1.6 4.17-1.6 6.69 0 2.52.533 4.75 1.6 6.69 1.067 1.94 2.517 3.443 4.35 4.51 1.833 1.067 3.88 1.6 6.14 1.6zM221.305 315.21c-4.733 0-8.99-1.003-12.77-3.01-3.773-2.007-6.737-4.78-8.89-8.32-2.153-3.54-3.23-7.53-3.23-11.97s1.077-8.43 3.23-11.97c2.153-3.54 5.117-6.313 8.89-8.32 3.78-2.007 8.037-3.01 12.77-3.01 4.74 0 8.997 1.003 12.77 3.01 3.773 2.007 6.74 4.78 8.9 8.32 2.153 3.54 3.23 7.53 3.23 11.97s-1.077 8.43-3.23 11.97c-2.16 3.54-5.127 6.313-8.9 8.32-3.773 2.007-8.03 3.01-12.77 3.01zm0-10.5c2.26 0 4.31-.533 6.15-1.6 1.833-1.067 3.283-2.57 4.35-4.51 1.067-1.94 1.6-4.17 1.6-6.69 0-2.52-.533-4.75-1.6-6.69-1.067-1.94-2.517-3.443-4.35-4.51-1.84-1.067-3.89-1.6-6.15-1.6-2.26 0-4.307.533-6.14 1.6-1.833 1.067-3.283 2.57-4.35 4.51-1.067 1.94-1.6 4.17-1.6 6.69 0 2.52.533 4.75 1.6 6.69 1.067 1.94 2.517 3.443 4.35 4.51 1.833 1.067 3.88 1.6 6.14 1.6zm60.794 10.5c-4.693 0-8.907-.993-12.64-2.98-3.733-1.987-6.667-4.75-8.8-8.29-2.133-3.54-3.2-7.55-3.2-12.03 0-4.48 1.067-8.49 3.2-12.03 2.133-3.54 5.067-6.303 8.8-8.29 3.733-1.987 7.947-2.98 12.64-2.98 4.093 0 7.783.727 11.07 2.18 3.287 1.453 6.017 3.543 8.19 6.27l-8.06 7.3c-2.907-3.5-6.427-5.25-10.56-5.25-2.433 0-4.6.533-6.5 1.6-1.9 1.067-3.373 2.57-4.42 4.51-1.04 1.94-1.56 4.17-1.56 6.69 0 2.52.52 4.75 1.56 6.69 1.047 1.94 2.52 3.443 4.42 4.51 1.9 1.067 4.067 1.6 6.5 1.6 4.133 0 7.653-1.75 10.56-5.25l8.06 7.3c-2.173 2.727-4.903 4.817-8.19 6.27-3.287 1.453-6.977 2.18-11.07 2.18z" style="fill:#fff;white-space:pre"/></svg>